<svg xmlns="http://www.w3.org/2000/svg" version="1.1" xmlns:xlink="http://www.w3.org/1999/xlink" xmlns:svgjs="http://svgjs.com/svgjs" width="1440" height="560" preserveAspectRatio="none" viewBox="0 0 1440 560"><g mask="url(&quot;#SvgjsMask1000&quot;)" fill="none"><rect width="1440" height="560" x="0" y="0" fill="#0e2a47"></rect><path d="M 0,32 C 57.6,94 172.8,345.4 288,342 C 403.2,338.6 460.8,4.2 576,15 C 691.2,25.8 748.8,379.2 864,396 C 979.2,412.8 1036.8,88.8 1152,99 C 1267.2,109.2 1382.4,377.4 1440,447L1440 560L0 560z" fill="#184a7e"></path><path d="M 0,20 C 96,88 288,322.8 480,360 C 672,397.2 768,202.2 960,206 C 1152,209.8 1344,344.4 1440,379L1440 560L0 560z" fill="#2264ab"></path></g><defs><mask id="SvgjsMask1000"><rect width="1440" height="560" fill="#ffffff"></rect></mask></defs></svg>